#!OML:ASF E:\acrobat2\Project_11_07_03\Capture day 1\Session 1\Acrobat.ASF
:FULLY-SPECIFIED
:DEGREES
112
root 8.1093 18.179 -13.8594 3.02106 3.80208 3.24961
lowerback -3.50268 1.47927 -0.714532
upperback 2.63905 2.11013 -2.09882
thorax 4.7457 1.0627 -1.60987
lowerneck 1.326 1.58071 2.09878
upperneck -2.3723 2.1584 0.0453494
head -0.920832 1.05993 -0.35724
rclavicle -8.12532e-015 2.22639e-014
rhumerus -41.336 17.9546 -96.8144
rradius 30.6357
rwrist -10.274
rhand 11.2284 -27.8956
rfingers 7.12502
rthumb 36.2905 -54.1402
lclavicle -8.12532e-015 2.22639e-014
lhumerus -30.853 -13.6028 89.0987
lradius 24.6394
lwrist 21.7344
lhand 6.81939 -15.2004
lfingers 7.12502
lthumb 32.1038 11.9847
rfemur 3.45757 2.79769 19.2697
rtibia 3.78553
rfoot -20.4849 -20.6977
rtoes 6.42474
lfemur -3.8156 -1.90266 -19.7375
ltibia 10.9003
lfoot -4.84757 -7.8905
ltoes 26.6986
113
root 8.10756 18.1789 -13.8651 3.06418 3.79108 3.17105
lowerback -3.31837 1.48117 -0.650825
upperback 2.71089 2.10631 -2.07938
thorax 4.71719 1.06293 -1.62964
lowerneck 1.39096 1.6154 2.07382
upperneck -2.45459 2.20718 0.0751355
head -0.957464 1.08345 -0.345972
rclavicle 5.2181e-015 1.45113e-014
rhumerus -41.2022 18.0155 -96.7854
rradius 30.6527
rwrist -10.2474
rhand 11.1521 -27.7903
rfingers 7.12502
rthumb 36.2182 -54.0528
lclavicle 5.2181e-015 1.45113e-014
lhumerus -30.8201 -13.5926 89.0604
lradius 24.8094
lwrist 21.7784
lhand 6.78053 -15.2206
lfingers 7.12502
lthumb 32.0668 11.9719
rfemur 3.37105 2.84066 19.3782
rtibia 3.80339
rfoot -20.4728 -20.7296
rtoes 6.42424
lfemur -3.94608 -1.92337 -19.633
ltibia 11.0014
lfoot -4.88622 -7.87338
ltoes 26.725
114
root 8.10605 18.1789 -13.8709 3.11408 3.77811 3.10788
lowerback -3.13496 1.47859 -0.600036
upperback 2.78117 2.09751 -2.06296
thorax 4.68706 1.06031 -1.64566
lowerneck 1.51115 1.64757 2.05227
upperneck -2.60057 2.25432 0.0951462
head -1.02336 1.10566 -0.33948
rclavicle 2.13694e-015 5.76476e-015
rhumerus -41.09 18.0523 -96.7387
rradius 30.7153
rwrist -10.2139
rhand 11.159 -27.7751
rfingers 7.12502
rthumb 36.2248 -54.036
lclavicle 2.13694e-015 5.76476e-015
lhumerus -30.7702 -13.5555 89.0147
lradius 24.9611
lwrist 21.814
lhand 6.77112 -15.2176
lfingers 7.12502
lthumb 32.0578 11.9768
rfemur 3.27815 2.86336 19.4624
rtibia 3.82491
rfoot -20.4554 -20.7324
rtoes 6.46575
lfemur -4.08646 -1.94277 -19.5523
ltibia 11.1135
lfoot -4.93187 -7.86279
ltoes 26.7227
115
root 8.10503 18.1788 -13.8767 3.17069 3.76971 3.06605
lowerback -2.96175 1.47367 -0.564507
upperback 2.86016 2.08724 -2.05307
thorax 4.6715 1.05661 -1.65963
lowerneck 1.63735 1.6779 2.02559
upperneck -2.76288 2.29941 0.123096
head -1.0958 1.12662 -0.329958
rclavicle -5.61567e-015 7.95139e-016
rhumerus -40.9743 18.0636 -96.6711
rradius 30.8106
rwrist -10.1788
rhand 11.2434 -27.8453
rfingers 7.12502
rthumb 36.3047 -54.0864
lclavicle -5.61567e-015 7.95139e-016
lhumerus -30.6954 -13.5118 88.9628
lradius 25.1036
lwrist 21.8446
lhand 6.76968 -15.1933
lfingers 7.12502
lthumb 32.0564 12.0013
rfemur 3.17822 2.84917 19.5116
rtibia 3.85227
rfoot -20.4243 -20.7054
rtoes 6.51287
lfemur -4.24663 -1.96545 -19.5059
ltibia 11.2551
lfoot -4.99068 -7.86597
ltoes 26.6628
116
root 8.10478 18.1786 -13.8826 3.23095 3.77019 3.04282
lowerback -2.79993 1.46795 -0.537924
upperback 2.9576 2.07742 -2.04998
thorax 4.68162 1.05303 -1.67508
lowerneck 1.73611 1.70151 2
upperneck -2.92308 2.33483 0.147975
head -1.16321 1.14281 -0.321134
rclavicle -1.30949e-014 3.75703e-014
rhumerus -40.8297 18.0618 -96.5832
rradius 30.9173
rwrist -10.1383
rhand 11.3794 -27.9517
rfingers 7.12502
rthumb 36.4335 -54.1605
lclavicle -1.30949e-014 3.75703e-014
lhumerus -30.5983 -13.4746 88.9039
lradius 25.2643
lwrist 21.8721
lhand 6.76663 -15.1464
lfingers 7.12502
lthumb 32.0535 12.0488
rfemur 3.07589 2.78922 19.5269
rtibia 3.88089
rfoot -20.3754 -20.6498
rtoes 6.53209
lfemur -4.43317 -1.99892 -19.4933
ltibia 11.4425
lfoot -5.07172 -7.88154
ltoes 26.5388
